<svg width="16" height="16" viewBox="0 0 16 16" fill="none" xmlns="http://www.w3.org/2000/svg">
<path d="M5.05156 14.97C11.0494 14.97 14.3292 10.001 14.3292 5.69232C14.3292 5.55118 14.3263 5.41068 14.32 5.27082C14.9567 4.81055 15.5101 4.23615 15.9466 3.5823C15.3623 3.842 14.7336 4.01683 14.074 4.09566C14.7472 3.69196 15.2641 3.05336 15.5079 2.29206C14.8779 2.66556 14.1802 2.93702 13.4373 3.08356C12.8422 2.44973 11.9951 2.05334 11.0571 2.05334C9.25635 2.05334 7.79606 3.51364 7.79606 5.31373C7.79606 5.56962 7.82467 5.81851 7.88061 6.05723C5.17045 5.92086 2.76736 4.62332 1.15925 2.6503C0.879211 3.13219 0.717734 3.69196 0.717734 4.28924C0.717734 5.42054 1.2934 6.41928 2.16881 7.00353C1.63383 6.987 1.13128 6.84015 0.691986 6.5957C0.691506 6.60939 0.691507 6.62272 0.691507 6.63734C0.691507 8.21652 1.81549 9.53504 3.30757 9.83384C3.03357 9.90854 2.74526 9.94859 2.44774 9.94859C2.23794 9.94859 2.03355 9.92795 1.83488 9.88979C2.25002 11.1854 3.45379 12.1282 4.88103 12.1546C3.76499 13.0294 2.35905 13.5504 0.831051 13.5504C0.568172 13.5504 0.308472 13.5354 0.0532227 13.5052C1.49635 14.4302 3.20999 14.97 5.05172 14.97" fill="#1DA1F2"/>
</svg>
